<svg xmlns="http://www.w3.org/2000/svg" width="100%" height="100%" viewBox="30 0 256 256" fill="none" preserveAspectRatio="xMidYMid meet">
    <g filter="url(#filter0_f_2_2)">
        <path d="M228.237 206.425C221.706 204.223 212.513 200.693 212.513 200.693C212.513 200.693 207.44 201.6 201.876 203.367C196.312 205.133 190.877 206.005 186.552 206.598C182.227 207.191 178.954 207.336 175.666 207.041C172.377 206.746 167.703 205.352 167.703 205.352C167.703 205.352 174.726 203.459 178.525 202.024C184.214 199.874 192.76 195.704 192.76 195.704C192.76 195.704 185.126 197.941 179.093 198.36C172.825 198.795 166.385 198.335 161.391 197.768C156.398 197.201 151.031 196.326 144.893 194.063C138.242 191.611 134.805 189.261 128.962 185.365C123.988 182.049 121.386 179.958 117.061 175.925C112.349 171.531 109.519 166.501 109.519 166.501C109.519 166.501 111.73 167.286 114.534 168.029C120.143 169.516 123.562 169.944 128.944 170.733C136.985 171.912 148.838 173.145 148.838 173.145C148.838 173.145 138.662 171.397 132.421 169.297C125.372 166.925 121.465 164.953 115.12 161.337C108.096 157.334 104.595 154.262 98.7534 148.403C93.2622 142.896 90.6215 139.316 86.4561 132.661C81.5264 124.785 79.5187 119.469 76.2744 110.878L76.1975 110.675C72.3986 100.616 71.1439 94.6887 69.2895 84.1417C67.2961 72.8034 66.8405 66.2647 66.8188 54.8201C66.7992 44.4968 66.9043 38.8461 68.9768 28.7057C70.3192 22.1376 70.6975 19.0115 73.4996 12.1041C74.4381 9.79054 75.685 8.60212 77.4235 7.88379C79.1621 7.16544 82.9783 7.36474 86.1628 8.87592C92.1416 11.7131 95.0382 13.9359 100.909 18.9876C109 25.9502 116.585 32.0722 122.79 40.5708C128.851 48.8722 131.546 54.2956 134.606 63.8238C136.602 70.0391 137.285 79.7823 137.285 79.7823C137.285 79.7823 138.913 71.9348 139.336 66.5193C139.663 62.338 139.753 56.1232 139.753 56.1232C139.753 56.1232 142.064 58.067 144.055 59.9038C151.096 66.3976 153.436 70.3091 159.404 77.9547C166.498 87.0403 170.554 92.5146 176.399 102.45C181.607 111.304 183.691 117.125 186.21 127.219C188.598 136.784 189.208 152.284 189.208 152.284C189.208 152.284 190.4 145.747 190.787 138.182C191.124 131.592 190.379 122.569 190.379 122.569C190.379 122.569 193.923 125.348 198.788 137.804C202.91 148.359 204.198 157.658 207.279 170.557C209.747 180.888 214.307 194.88 214.307 194.88C214.307 194.88 219.324 197.738 226.858 200.512C230.511 201.857 234.862 202.795 236.398 203.1C237.933 203.405 239.161 203.915 239.613 205.122C240.042 206.268 238.879 207.742 237.529 208.112C236.179 208.482 234.767 208.627 228.237 206.425Z" fill="#BAF5FF" fill-opacity="0.5" />
        <g opacity="0.45" filter="url(#filter1_f_2_2)">
            <ellipse cx="179.561" cy="178.351" rx="41.0911" ry="39.5911" fill="#D9FFCC" />
        </g>
        <path d="M228.237 206.425C221.706 204.222 212.513 200.693 212.513 200.693C212.513 200.693 207.44 201.6 201.876 203.367C196.312 205.133 190.877 206.005 186.552 206.598C182.227 207.191 178.954 207.336 175.666 207.041C172.377 206.746 167.703 205.352 167.703 205.352C167.703 205.352 174.726 203.459 178.525 202.024C184.214 199.874 192.76 195.704 192.76 195.704C192.76 195.704 185.126 197.941 179.093 198.36C172.825 198.795 166.385 198.335 161.391 197.768C156.398 197.201 151.031 196.326 144.893 194.063C138.242 191.611 134.805 189.261 128.962 185.365C123.988 182.049 121.386 179.958 117.061 175.925C112.349 171.531 109.519 166.5 109.519 166.5C109.519 166.5 111.73 167.286 114.534 168.029C120.143 169.516 123.562 169.944 128.944 170.733C136.985 171.912 148.838 173.144 148.838 173.144C148.838 173.144 138.662 171.397 132.421 169.297C125.372 166.925 121.465 164.953 115.12 161.337C108.096 157.334 104.595 154.262 98.7534 148.403C93.2622 142.896 90.6215 139.316 86.4561 132.661C81.5264 124.785 79.5187 119.469 76.2744 110.878L76.1975 110.675C72.3986 100.616 71.1439 94.6887 69.2895 84.1416C67.2961 72.8034 66.8405 66.2647 66.8188 54.82C66.7992 44.4967 66.9043 38.8461 68.9768 28.7056C70.3192 22.1376 70.6975 19.0115 73.4996 12.104C74.4381 9.79051 75.685 8.60209 77.4235 7.88375C79.1621 7.16541 82.9783 7.36471 86.1628 8.87589C92.1416 11.7131 95.0382 13.9359 100.909 18.9876C109 25.9501 116.585 32.0721 122.79 40.5708C128.851 48.8722 131.546 54.2955 134.606 63.8238C136.602 70.039 137.285 79.7823 137.285 79.7823C137.285 79.7823 138.913 71.9348 139.336 66.5193C139.663 62.338 139.753 56.1232 139.753 56.1232C139.753 56.1232 142.064 58.0669 144.055 59.9038C151.096 66.3976 153.436 70.309 159.404 77.9547C166.498 87.0403 170.554 92.5146 176.399 102.45C181.607 111.304 183.691 117.125 186.21 127.219C188.598 136.784 189.208 152.284 189.208 152.284C189.208 152.284 190.4 145.747 190.787 138.182C191.124 131.592 190.379 122.569 190.379 122.569C190.379 122.569 193.923 125.348 198.788 137.804C202.91 148.359 204.198 157.658 207.279 170.557C209.747 180.888 214.307 194.88 214.307 194.88C214.307 194.88 219.324 197.738 226.858 200.512C230.511 201.857 234.862 202.795 236.398 203.1C237.933 203.405 239.161 203.915 239.613 205.122C240.042 206.268 238.879 207.742 237.529 208.112C236.179 208.482 234.767 208.627 228.237 206.425Z" stroke="#93A5AC" stroke-width="3" />
        <path d="M210.789 195.723L212.879 198.053L208.867 197.096L190.518 186.641C190.518 186.641 181.487 180.693 175.629 176.448C169.616 172.09 165.941 169.549 160.164 164.597C152.772 158.26 149.002 154.214 142.422 147.081C136.06 140.186 132.856 135.678 127.419 128.089C122.717 121.526 120.736 118.114 116.655 111.321C112.421 104.273 109.911 99.9625 106.462 92.2206C104.188 87.1191 101.043 79.069 101.043 79.069C101.043 79.069 103.749 84.4915 107.382 91.6056C110.253 97.2296 114.274 103.792 118.722 111.36C122.193 117.265 127.04 123.72 129.259 126.859C134.731 134.596 137.092 138.22 144.118 145.77C150.423 152.543 155.204 157.014 162.25 162.937C171.383 170.615 179.258 175.813 189.122 182.427C198.276 188.566 210.789 195.723 210.789 195.723Z" fill="#93A5AC" stroke="#93A5AC" />
        <g filter="url(#filter2_f_2_2)">
            <path d="M179.008 141.291L188.142 167.11L213.03 175.957L188.397 185.493L179.984 211.555L170.85 185.736L145.961 176.889L170.594 167.353L179.008 141.291Z" fill="white" />
        </g>
    </g>
    <defs>
        <filter id="filter0_f_2_2" x="60.317" y="0.983093" width="256" height="256" filterUnits="userSpaceOnUse" color-interpolation-filters="sRGB">
            <feFlood flood-opacity="0" result="BackgroundImageFix" />
            <feBlend mode="normal" in="SourceGraphic" in2="BackgroundImageFix" result="shape" />
            <feGaussianBlur stdDeviation="2.5" result="effect1_foregroundBlur_2_2" />
        </filter>
        <filter id="filter1_f_2_2" x="88.4698" y="88.76" width="182.182" height="179.182" filterUnits="userSpaceOnUse" color-interpolation-filters="sRGB">
            <feFlood flood-opacity="0" result="BackgroundImageFix" />
            <feBlend mode="normal" in="SourceGraphic" in2="BackgroundImageFix" result="shape" />
            <feGaussianBlur stdDeviation="25" result="effect1_foregroundBlur_2_2" />
        </filter>
        <filter id="filter2_f_2_2" x="130.961" y="126.291" width="97.0698" height="100.264" filterUnits="userSpaceOnUse" color-interpolation-filters="sRGB">
            <feFlood flood-opacity="0" result="BackgroundImageFix" />
            <feBlend mode="normal" in="SourceGraphic" in2="BackgroundImageFix" result="shape" />
            <feGaussianBlur stdDeviation="7.5" result="effect1_foregroundBlur_2_2" />
        </filter>
    </defs>
</svg>